<svg width="500" height="500" viewBox="0 0 500 500" fill="none" xmlns="http://www.w3.org/2000/svg">
<circle cx="293.5" cy="209.5" r="178.5" fill="#D9D9D9" fill-opacity="0.85"/>
<path d="M342.849 68.8809C331.458 28.6489 28 68.8809 28 68.8809L81.4666 144.949H190.665C190.665 144.949 88.2467 285.585 81.4666 325.359C74.6865 365.134 109.56 461.599 109.56 461.599C109.56 461.599 354.24 109.113 342.849 68.8809Z" fill="white" fill-opacity="0.8"/>
<path d="M253.088 325.359C269.946 284.213 401.627 68.8809 401.627 68.8809C401.627 68.8809 433.522 82.5963 462.228 153.002C490.933 223.408 287.261 468 287.261 468C287.261 468 236.229 366.506 253.088 325.359Z" fill="white" fill-opacity="0.8"/>
</svg>
